[CENTER][IMG]http://www.shotpix.com/images/09801023951373342456.png[/IMG]


[URL="http://freeforumsigs.com/"][IMG]http://freeforumsigs.com/glittertext/holdz/z4e141eb2639b9.gif[/IMG][/URL]
[URL="http://freeforumsigs.com/"][IMG]http://freeforumsigs.com/glittertext/holdz/z4e141f0dd6a91.gif[/IMG][/URL]

[IMG]http://www.shotpix.com/images/32546860675946839320.png[/IMG]
[/CENTER]

[quote]General 
Unique ID : 177450744237511557139118143364112072523 (0x857FC52BB39774A787463EF9EEE43F4B) 
Complete name : Transformers3DarkoftheMoon550MB~Dual Audio(Eng~Hin)~ TsRip~Team MJY~MovieJockey.Com
Format : Matroska 
File size : 543 MiB 
Duration : 2h 10mn 
Overall bit rate : 580 Kbps 
Encoded date : UTC 2011-07-03 19:48:21 
Writing application : mkvmerge v2.2.0 ('Turn It On Again') built on Mar 4 2008 13:20:25 
Writing library : libebml v0.7.7 + libmatroska v0.8.1 

Video 
ID : 1 
Format : AVC 
Format/Info : Advanced Video Codec 
Format profile : High@L2.1 
Format settings, CABAC : Yes 
Format settings, ReFrames : 4 frames 
Format settings, GOP : M=1, N=32 
Codec ID : V_MPEG4/ISO/AVC 
Duration : 2h 10mn 
Bit rate : 456 Kbps 
Width : 640 pixels 
Height : 300 pixels 
Display aspect ratio : 2.2:1 
Frame rate : 25.000 fps 
Color space : YUV 
Chroma subsampling : 4:2:0 
Bit depth : 8 bits 
Scan type : Progressive 
Bits/(Pixel*Frame) : 0.095 
Stream size : 427 MiB (79%) 
Title : Harsh 

Audio #1 
ID : 2 
Format : MPEG Audio 
Format version : Version 2 
Format profile : Layer 3 
Mode : Joint stereo 
Mode extension : MS Stereo 
Codec ID : A_MPEG/L3 
Codec ID/Hint : MP3 
Duration : 2h 10mn 
Bit rate mode : Constant 
Bit rate : 32.0 Kbps 
Channel(s) : 2 channels 
Sampling rate : 16.0 KHz 
Compression mode : Lossy 
Delay relative to video : 4ms 
Stream size : 30.0 MiB (6%) 
Title : Harsh - Hindi 
Language : English 

Audio #2 
ID : 3 
Format : MPEG Audio 
Format version : Version 1 
Format profile : Layer 3 
Mode : Dual mono 
Codec ID : A_MPEG/L3 
Codec ID/Hint : MP3 
Duration : 2h 10mn 
Bit rate mode : Constant 
Bit rate : 80.0 Kbps 
Channel(s) : 2 channels 
Sampling rate : 32.0 KHz 
Compression mode : Lossy 
Delay relative to video : 2s 700ms 
Stream size : 74.9 MiB (14%) 
Title : Harsh - Hindi 
Language : Hindi 

[/quote][CENTER][IMG]http://www.shotpix.com/images/76329016014437764201.png[/IMG]

[IMG]http://cdn.inquisitr.com/wp-content/2011/04/transformers-dark-of-the-moon.jpeg[/IMG]

[IMG]http://img10.imageshack.us/img10/3695/thumbs20110706141416.jpg[/IMG]

[IMG]http://img825.imageshack.us/img825/5591/vlcsnap2011070614h19m55.png[/IMG]

[IMG]http://img220.imageshack.us/img220/7825/vlcsnap2011070614h19m29.png[/IMG]

[IMG]http://img196.imageshack.us/img196/3339/vlcsnap2011070614h17m44.png[/IMG]

[IMG]http://img37.imageshack.us/img37/5588/vlcsnap2011070614h17m16.png[/IMG]

[IMG]http://img269.imageshack.us/img269/7171/vlcsnap2011070614h17m08.png[/IMG]

[IMG]http://img194.imageshack.us/img194/5941/vlcsnap2011070614h15m55.png[/IMG]



[FONT=Comic Sans MS][SIZE=5][COLOR=Wheat]Credits:Thanks To Team AF[/COLOR][/SIZE][/FONT][/CENTER]

[COLOR="YellowGreen"][FONT="Century Gothic"][CENTER][SIZE="5"]Opening the file:Open Vlc Player>Media>Open file>Audio>Audio track>Hindi[/SIZE][/CENTER][/FONT][/COLOR]

[FONT=Arial Narrow][SIZE=6][CENTER][COLOR=YellowGreen]Seeding Time:10am to 11pm[/COLOR][/CENTER]
[/SIZE][/FONT]

[SIZE=5][COLOR=SeaGreen][CENTER]Download-Seed-Enjoy![/CENTER]
[/COLOR][/SIZE]

[COLOR=DarkSlateBlue][FONT=Franklin Gothic Medium][CENTER][SIZE=7]Kindly Add "++ REP ++" By Clicking On Thanks Button If "U" Like My Post[/SIZE][/CENTER]
[/FONT][/COLOR]